<?xml version="1.0" encoding="UTF-8" standalone="no"?>
<!DOCTYPE svg PUBLIC "-//W3C//DTD SVG 1.1//EN"
 "http://www.w3.org/Graphics/SVG/1.1/DTD/svg11.dtd">
<!-- Generated by graphviz version 2.28.0 (20110507.0327)
 -->
<!-- Title: G Pages: 1 -->
<svg width="512pt" height="1104pt"
 viewBox="0.00 0.00 512.00 1104.00" xmlns="http://www.w3.org/2000/svg" xmlns:xlink="http://www.w3.org/1999/xlink">
<g id="graph1" class="graph" transform="scale(1 1) rotate(0) translate(4 1100)">
<title>G</title>
<polygon fill="white" stroke="white" points="-4,5 -4,-1100 509,-1100 509,5 -4,5"/>
<g id="graph2" class="cluster"><title>cluster_Global</title>
<polyline fill="none" stroke="gray" points="192,-44 484,-44 "/>
<path fill="none" stroke="gray" d="M484,-44C490,-44 496,-50 496,-56"/>
<polyline fill="none" stroke="gray" points="496,-56 496,-1076 "/>
<path fill="none" stroke="gray" d="M496,-1076C496,-1082 490,-1088 484,-1088"/>
<polyline fill="none" stroke="gray" points="484,-1088 192,-1088 "/>
<path fill="none" stroke="gray" d="M192,-1088C186,-1088 180,-1082 180,-1076"/>
<polyline fill="none" stroke="gray" points="180,-1076 180,-56 "/>
<path fill="none" stroke="gray" d="M180,-56C180,-50 186,-44 192,-44"/>
<text text-anchor="middle" x="338" y="-1075.2" font-family="Times New Roman,serif" font-size="11.00" fill="gray">\</text>
</g>
<!-- \\AnnouncementsController -->
<g id="node2" class="node"><title>\\AnnouncementsController</title>
<polygon fill="none" stroke="black" points="487.5,-1060 356.5,-1060 356.5,-1024 487.5,-1024 487.5,-1060"/>
<text text-anchor="middle" x="422" y="-1039.2" font-family="Times New Roman,serif" font-size="11.00">AnnouncementsController</text>
</g>
<!-- \\AppController -->
<g id="node3" class="node"><title>\\AppController</title>
<polygon fill="none" stroke="black" points="267.5,-898 188.5,-898 188.5,-862 267.5,-862 267.5,-898"/>
<text text-anchor="middle" x="228" y="-877.2" font-family="Times New Roman,serif" font-size="11.00">AppController</text>
</g>
<!-- \\AnnouncementsController&#45;&gt;\\AppController -->
<g id="edge3" class="edge"><title>\\AnnouncementsController&#45;&gt;\\AppController</title>
<path fill="none" stroke="black" d="M371.215,-1023.93C365.905,-1021.24 360.724,-1018.27 356,-1015 311.67,-984.358 270.99,-936.034 248.156,-906.275"/>
<polygon fill="none" stroke="black" points="250.752,-903.906 241.929,-898.04 245.168,-908.128 250.752,-903.906"/>
</g>
<!-- \\Controller -->
<g id="node25" class="node"><title>\\Controller</title>
<ellipse fill="none" stroke="black" cx="50" cy="-880" rx="50.0912" ry="18"/>
<text text-anchor="middle" x="50" y="-876.3" font-family="Times New Roman,serif" font-size="14.00" fill="gray">\Controller</text>
</g>
<!-- \\AppController&#45;&gt;\\Controller -->
<g id="edge5" class="edge"><title>\\AppController&#45;&gt;\\Controller</title>
<path fill="none" stroke="black" d="M188.376,-880C165.507,-880 136.061,-880 110.3,-880"/>
<polygon fill="none" stroke="black" points="110.26,-876.5 100.26,-880 110.26,-883.5 110.26,-876.5"/>
</g>
<!-- \\CalculatorsController -->
<g id="node4" class="node"><title>\\CalculatorsController</title>
<polygon fill="none" stroke="black" points="477,-1006 367,-1006 367,-970 477,-970 477,-1006"/>
<text text-anchor="middle" x="422" y="-985.2" font-family="Times New Roman,serif" font-size="11.00">CalculatorsController</text>
</g>
<!-- \\CalculatorsController&#45;&gt;\\AppController -->
<g id="edge7" class="edge"><title>\\CalculatorsController&#45;&gt;\\AppController</title>
<path fill="none" stroke="black" d="M374.732,-969.951C368.358,-967.127 361.959,-964.108 356,-961 323.228,-943.908 287.932,-921 262.888,-903.907"/>
<polygon fill="none" stroke="black" points="264.701,-900.906 254.478,-898.122 260.734,-906.673 264.701,-900.906"/>
</g>
<!-- \\AlgorithmComponent -->
<g id="node5" class="node"><title>\\AlgorithmComponent</title>
<polygon fill="none" stroke="black" points="477,-88 367,-88 367,-52 477,-52 477,-88"/>
<text text-anchor="middle" x="422" y="-67.2" font-family="Times New Roman,serif" font-size="11.00">AlgorithmComponent</text>
</g>
<!-- \\Component -->
<g id="node28" class="node"><title>\\Component</title>
<ellipse fill="none" stroke="black" cx="228" cy="-18" rx="55.7903" ry="18"/>
<text text-anchor="middle" x="228" y="-14.3" font-family="Times New Roman,serif" font-size="14.00" fill="gray">\Component</text>
</g>
<!-- \\AlgorithmComponent&#45;&gt;\\Component -->
<g id="edge9" class="edge"><title>\\AlgorithmComponent&#45;&gt;\\Component</title>
<path fill="none" stroke="black" d="M366.75,-55.3074C339.906,-48.0371 307.653,-39.3019 281.107,-32.1122"/>
<polygon fill="none" stroke="black" points="281.802,-28.6746 271.235,-29.4386 279.972,-35.4312 281.802,-28.6746"/>
</g>
<!-- \\MedicinesController -->
<g id="node6" class="node"><title>\\MedicinesController</title>
<polygon fill="none" stroke="black" points="474.5,-952 369.5,-952 369.5,-916 474.5,-916 474.5,-952"/>
<text text-anchor="middle" x="422" y="-931.2" font-family="Times New Roman,serif" font-size="11.00">MedicinesController</text>
</g>
<!-- \\MedicinesController&#45;&gt;\\AppController -->
<g id="edge11" class="edge"><title>\\MedicinesController&#45;&gt;\\AppController</title>
<path fill="none" stroke="black" d="M369.295,-919.458C340.806,-911.445 305.65,-901.558 277.658,-893.685"/>
<polygon fill="none" stroke="black" points="278.269,-890.221 267.695,-890.883 276.374,-896.96 278.269,-890.221"/>
</g>
<!-- \\PagesController -->
<g id="node7" class="node"><title>\\PagesController</title>
<polygon fill="none" stroke="black" points="465.5,-898 378.5,-898 378.5,-862 465.5,-862 465.5,-898"/>
<text text-anchor="middle" x="422" y="-877.2" font-family="Times New Roman,serif" font-size="11.00">PagesController</text>
</g>
<!-- \\PagesController&#45;&gt;\\AppController -->
<g id="edge13" class="edge"><title>\\PagesController&#45;&gt;\\AppController</title>
<path fill="none" stroke="black" d="M378.389,-880C348.612,-880 308.786,-880 277.743,-880"/>
<polygon fill="none" stroke="black" points="277.58,-876.5 267.58,-880 277.58,-883.5 277.58,-876.5"/>
</g>
<!-- \\PatientsController -->
<g id="node8" class="node"><title>\\PatientsController</title>
<polygon fill="none" stroke="black" points="469.5,-844 374.5,-844 374.5,-808 469.5,-808 469.5,-844"/>
<text text-anchor="middle" x="422" y="-823.2" font-family="Times New Roman,serif" font-size="11.00">PatientsController</text>
</g>
<!-- \\PatientsController&#45;&gt;\\AppController -->
<g id="edge15" class="edge"><title>\\PatientsController&#45;&gt;\\AppController</title>
<path fill="none" stroke="black" d="M374.032,-839.21C344.707,-847.457 307.039,-858.052 277.441,-866.376"/>
<polygon fill="none" stroke="black" points="276.416,-863.028 267.737,-869.105 278.311,-869.767 276.416,-863.028"/>
</g>
<!-- \\UsersController -->
<g id="node9" class="node"><title>\\UsersController</title>
<polygon fill="none" stroke="black" points="465,-790 379,-790 379,-754 465,-754 465,-790"/>
<text text-anchor="middle" x="422" y="-769.2" font-family="Times New Roman,serif" font-size="11.00">UsersController</text>
</g>
<!-- \\UsersController&#45;&gt;\\AppController -->
<g id="edge17" class="edge"><title>\\UsersController&#45;&gt;\\AppController</title>
<path fill="none" stroke="black" d="M378.896,-788.229C371.171,-791.56 363.259,-795.214 356,-799 323.228,-816.092 287.932,-839 262.888,-856.093"/>
<polygon fill="none" stroke="black" points="260.734,-853.327 254.478,-861.878 264.701,-859.094 260.734,-853.327"/>
</g>
<!-- \\VisitsController -->
<g id="node10" class="node"><title>\\VisitsController</title>
<polygon fill="none" stroke="black" points="464.5,-736 379.5,-736 379.5,-700 464.5,-700 464.5,-736"/>
<text text-anchor="middle" x="422" y="-715.2" font-family="Times New Roman,serif" font-size="11.00">VisitsController</text>
</g>
<!-- \\VisitsController&#45;&gt;\\AppController -->
<g id="edge19" class="edge"><title>\\VisitsController&#45;&gt;\\AppController</title>
<path fill="none" stroke="black" d="M379.407,-732.193C371.315,-735.793 363.137,-740.067 356,-745 311.67,-775.642 270.99,-823.966 248.156,-853.725"/>
<polygon fill="none" stroke="black" points="245.168,-851.872 241.929,-861.96 250.752,-856.094 245.168,-851.872"/>
</g>
<!-- \\AppModel -->
<g id="node11" class="node"><title>\\AppModel</title>
<polygon fill="none" stroke="black" points="259.5,-412 196.5,-412 196.5,-376 259.5,-376 259.5,-412"/>
<text text-anchor="middle" x="228" y="-391.2" font-family="Times New Roman,serif" font-size="11.00">AppModel</text>
</g>
<!-- \\Model -->
<g id="node35" class="node"><title>\\Model</title>
<ellipse fill="none" stroke="black" cx="50" cy="-394" rx="36.2938" ry="18"/>
<text text-anchor="middle" x="50" y="-390.3" font-family="Times New Roman,serif" font-size="14.00" fill="gray">\Model</text>
</g>
<!-- \\AppModel&#45;&gt;\\Model -->
<g id="edge21" class="edge"><title>\\AppModel&#45;&gt;\\Model</title>
<path fill="none" stroke="black" d="M196.343,-394C168.825,-394 128.055,-394 96.6932,-394"/>
<polygon fill="none" stroke="black" points="96.4508,-390.5 86.4508,-394 96.4508,-397.5 96.4508,-390.5"/>
</g>
<!-- \\Diagnosis -->
<g id="node12" class="node"><title>\\Diagnosis</title>
<polygon fill="none" stroke="black" points="451.5,-682 392.5,-682 392.5,-646 451.5,-646 451.5,-682"/>
<text text-anchor="middle" x="422" y="-661.2" font-family="Times New Roman,serif" font-size="11.00">Diagnosis</text>
</g>
<!-- \\Diagnosis&#45;&gt;\\AppModel -->
<g id="edge23" class="edge"><title>\\Diagnosis&#45;&gt;\\AppModel</title>
<path fill="none" stroke="black" d="M392.346,-656.867C380.041,-652.679 366.183,-646.325 356,-637 289.304,-575.923 251.656,-471.665 236.674,-421.957"/>
<polygon fill="none" stroke="black" points="239.99,-420.826 233.819,-412.214 233.273,-422.794 239.99,-420.826"/>
</g>
<!-- \\DrugAllergy -->
<g id="node13" class="node"><title>\\DrugAllergy</title>
<polygon fill="none" stroke="black" points="457.5,-628 386.5,-628 386.5,-592 457.5,-592 457.5,-628"/>
<text text-anchor="middle" x="422" y="-607.2" font-family="Times New Roman,serif" font-size="11.00">DrugAllergy</text>
</g>
<!-- \\DrugAllergy&#45;&gt;\\AppModel -->
<g id="edge25" class="edge"><title>\\DrugAllergy&#45;&gt;\\AppModel</title>
<path fill="none" stroke="black" d="M386.193,-599.861C375.772,-595.735 364.79,-590.202 356,-583 300.63,-537.634 260.052,-461.89 241.041,-421.437"/>
<polygon fill="none" stroke="black" points="244.143,-419.807 236.782,-412.187 237.785,-422.734 244.143,-419.807"/>
</g>
<!-- \\MedhistoryComplaint -->
<g id="node14" class="node"><title>\\MedhistoryComplaint</title>
<polygon fill="none" stroke="black" points="477,-574 367,-574 367,-538 477,-538 477,-574"/>
<text text-anchor="middle" x="422" y="-553.2" font-family="Times New Roman,serif" font-size="11.00">MedhistoryComplaint</text>
</g>
<!-- \\MedhistoryComplaint&#45;&gt;\\AppModel -->
<g id="edge27" class="edge"><title>\\MedhistoryComplaint&#45;&gt;\\AppModel</title>
<path fill="none" stroke="black" d="M371.215,-537.926C365.905,-535.242 360.724,-532.266 356,-529 311.67,-498.358 270.99,-450.034 248.156,-420.275"/>
<polygon fill="none" stroke="black" points="250.752,-417.906 241.929,-412.04 245.168,-422.128 250.752,-417.906"/>
</g>
<!-- \\Medicine -->
<g id="node15" class="node"><title>\\Medicine</title>
<polygon fill="none" stroke="black" points="450.5,-520 393.5,-520 393.5,-484 450.5,-484 450.5,-520"/>
<text text-anchor="middle" x="422" y="-499.2" font-family="Times New Roman,serif" font-size="11.00">Medicine</text>
</g>
<!-- \\Medicine&#45;&gt;\\AppModel -->
<g id="edge29" class="edge"><title>\\Medicine&#45;&gt;\\AppModel</title>
<path fill="none" stroke="black" d="M393.319,-491.736C381.595,-487.075 367.918,-481.216 356,-475 323.228,-457.908 287.932,-435 262.888,-417.907"/>
<polygon fill="none" stroke="black" points="264.701,-414.906 254.478,-412.122 260.734,-420.673 264.701,-414.906"/>
</g>
<!-- \\Patient -->
<g id="node16" class="node"><title>\\Patient</title>
<polygon fill="none" stroke="black" points="449,-466 395,-466 395,-430 449,-430 449,-466"/>
<text text-anchor="middle" x="422" y="-445.2" font-family="Times New Roman,serif" font-size="11.00">Patient</text>
</g>
<!-- \\Patient&#45;&gt;\\AppModel -->
<g id="edge31" class="edge"><title>\\Patient&#45;&gt;\\AppModel</title>
<path fill="none" stroke="black" d="M394.706,-440.605C362.368,-431.51 307.136,-415.976 269.398,-405.362"/>
<polygon fill="none" stroke="black" points="270.303,-401.981 259.729,-402.643 268.408,-408.719 270.303,-401.981"/>
</g>
<!-- \\Profile -->
<g id="node17" class="node"><title>\\Profile</title>
<polygon fill="none" stroke="black" points="449,-412 395,-412 395,-376 449,-376 449,-412"/>
<text text-anchor="middle" x="422" y="-391.2" font-family="Times New Roman,serif" font-size="11.00">Profile</text>
</g>
<!-- \\Profile&#45;&gt;\\AppModel -->
<g id="edge33" class="edge"><title>\\Profile&#45;&gt;\\AppModel</title>
<path fill="none" stroke="black" d="M394.706,-394C362.506,-394 307.606,-394 269.881,-394"/>
<polygon fill="none" stroke="black" points="269.729,-390.5 259.729,-394 269.729,-397.5 269.729,-390.5"/>
</g>
<!-- \\Treatment -->
<g id="node18" class="node"><title>\\Treatment</title>
<polygon fill="none" stroke="black" points="453,-358 391,-358 391,-322 453,-322 453,-358"/>
<text text-anchor="middle" x="422" y="-337.2" font-family="Times New Roman,serif" font-size="11.00">Treatment</text>
</g>
<!-- \\Treatment&#45;&gt;\\AppModel -->
<g id="edge35" class="edge"><title>\\Treatment&#45;&gt;\\AppModel</title>
<path fill="none" stroke="black" d="M390.577,-348.556C357.812,-357.772 305.524,-372.478 269.345,-382.653"/>
<polygon fill="none" stroke="black" points="268.277,-379.318 259.598,-385.394 270.172,-386.056 268.277,-379.318"/>
</g>
<!-- \\TreatmentRunAlgorithm -->
<g id="node19" class="node"><title>\\TreatmentRunAlgorithm</title>
<polygon fill="none" stroke="black" points="484,-304 360,-304 360,-268 484,-268 484,-304"/>
<text text-anchor="middle" x="422" y="-283.2" font-family="Times New Roman,serif" font-size="11.00">TreatmentRunAlgorithm</text>
</g>
<!-- \\TreatmentRunAlgorithm&#45;&gt;\\AppModel -->
<g id="edge37" class="edge"><title>\\TreatmentRunAlgorithm&#45;&gt;\\AppModel</title>
<path fill="none" stroke="black" d="M372.994,-304.047C367.14,-306.796 361.345,-309.795 356,-313 320.517,-334.274 319.622,-350.961 284,-372 279.296,-374.778 274.175,-377.351 269.014,-379.684"/>
<polygon fill="none" stroke="black" points="267.596,-376.484 259.761,-383.616 270.334,-382.926 267.596,-376.484"/>
</g>
<!-- \\User -->
<g id="node20" class="node"><title>\\User</title>
<polygon fill="none" stroke="black" points="449,-250 395,-250 395,-214 449,-214 449,-250"/>
<text text-anchor="middle" x="422" y="-229.2" font-family="Times New Roman,serif" font-size="11.00">User</text>
</g>
<!-- \\User&#45;&gt;\\AppModel -->
<g id="edge39" class="edge"><title>\\User&#45;&gt;\\AppModel</title>
<path fill="none" stroke="black" d="M394.964,-238.779C382.212,-243.047 367.228,-249.569 356,-259 310.399,-297.3 329.852,-334.002 284,-372 279.485,-375.741 274.253,-378.908 268.848,-381.569"/>
<polygon fill="none" stroke="black" points="267.437,-378.366 259.682,-385.584 270.246,-384.777 267.437,-378.366"/>
</g>
<!-- \\Visit -->
<g id="node21" class="node"><title>\\Visit</title>
<polygon fill="none" stroke="black" points="449,-196 395,-196 395,-160 449,-160 449,-196"/>
<text text-anchor="middle" x="422" y="-175.2" font-family="Times New Roman,serif" font-size="11.00">Visit</text>
</g>
<!-- \\Visit&#45;&gt;\\AppModel -->
<g id="edge41" class="edge"><title>\\Visit&#45;&gt;\\AppModel</title>
<path fill="none" stroke="black" d="M394.939,-183.842C381.871,-187.906 366.612,-194.529 356,-205 298.466,-261.77 341.907,-315.611 284,-372 279.705,-376.183 274.514,-379.601 269.057,-382.387"/>
<polygon fill="none" stroke="black" points="267.472,-379.261 259.736,-386.5 270.298,-385.665 267.472,-379.261"/>
</g>
<!-- \\VitalsLab -->
<g id="node22" class="node"><title>\\VitalsLab</title>
<polygon fill="none" stroke="black" points="451.5,-142 392.5,-142 392.5,-106 451.5,-106 451.5,-142"/>
<text text-anchor="middle" x="422" y="-121.2" font-family="Times New Roman,serif" font-size="11.00">VitalsLab</text>
</g>
<!-- \\VitalsLab&#45;&gt;\\AppModel -->
<g id="edge43" class="edge"><title>\\VitalsLab&#45;&gt;\\AppModel</title>
<path fill="none" stroke="black" d="M392.246,-130.157C379.623,-134.183 365.538,-140.68 356,-151 285.886,-226.865 354.613,-296.599 284,-372 279.812,-376.472 274.594,-380.054 269.053,-382.919"/>
<polygon fill="none" stroke="black" points="267.297,-379.867 259.547,-387.091 270.11,-386.277 267.297,-379.867"/>
</g>
</g>
</svg>
