<?xml version="1.0" encoding="UTF-8" standalone="no"?>
<!DOCTYPE svg PUBLIC "-//W3C//DTD SVG 1.1//EN"
 "http://www.w3.org/Graphics/SVG/1.1/DTD/svg11.dtd">
<!-- Generated by graphviz version 2.28.0 (20110507.0327)
 -->
<!-- Title: G Pages: 1 -->
<svg width="512pt" height="510pt"
 viewBox="0.00 0.00 512.00 510.00" xmlns="http://www.w3.org/2000/svg" xmlns:xlink="http://www.w3.org/1999/xlink">
<g id="graph1" class="graph" transform="scale(1 1) rotate(0) translate(4 506)">
<title>G</title>
<polygon fill="white" stroke="white" points="-4,5 -4,-506 509,-506 509,5 -4,5"/>
<g id="graph2" class="cluster"><title>cluster_Global</title>
<polyline fill="none" stroke="gray" points="192,-44 484,-44 "/>
<path fill="none" stroke="gray" d="M484,-44C490,-44 496,-50 496,-56"/>
<polyline fill="none" stroke="gray" points="496,-56 496,-482 "/>
<path fill="none" stroke="gray" d="M496,-482C496,-488 490,-494 484,-494"/>
<polyline fill="none" stroke="gray" points="484,-494 192,-494 "/>
<path fill="none" stroke="gray" d="M192,-494C186,-494 180,-488 180,-482"/>
<polyline fill="none" stroke="gray" points="180,-482 180,-56 "/>
<path fill="none" stroke="gray" d="M180,-56C180,-50 186,-44 192,-44"/>
<text text-anchor="middle" x="338" y="-481.2" font-family="Times New Roman,serif" font-size="11.00" fill="gray">\</text>
</g>
<!-- \\PagesController -->
<g id="node2" class="node"><title>\\PagesController</title>
<polygon fill="none" stroke="black" points="465.5,-466 378.5,-466 378.5,-430 465.5,-430 465.5,-466"/>
<text text-anchor="middle" x="422" y="-445.2" font-family="Times New Roman,serif" font-size="11.00">PagesController</text>
</g>
<!-- \\AppController -->
<g id="node5" class="node"><title>\\AppController</title>
<polygon fill="none" stroke="black" points="267.5,-304 188.5,-304 188.5,-268 267.5,-268 267.5,-304"/>
<text text-anchor="middle" x="228" y="-283.2" font-family="Times New Roman,serif" font-size="11.00">AppController</text>
</g>
<!-- \\PagesController&#45;&gt;\\AppController -->
<g id="edge3" class="edge"><title>\\PagesController&#45;&gt;\\AppController</title>
<path fill="none" stroke="black" d="M378.381,-433.347C370.626,-429.844 362.835,-425.725 356,-421 311.67,-390.358 270.99,-342.034 248.156,-312.275"/>
<polygon fill="none" stroke="black" points="250.752,-309.906 241.929,-304.04 245.168,-314.128 250.752,-309.906"/>
</g>
<!-- \\AlgorithmComponent -->
<g id="node3" class="node"><title>\\AlgorithmComponent</title>
<polygon fill="none" stroke="black" points="477,-88 367,-88 367,-52 477,-52 477,-88"/>
<text text-anchor="middle" x="422" y="-67.2" font-family="Times New Roman,serif" font-size="11.00">AlgorithmComponent</text>
</g>
<!-- \\Component -->
<g id="node13" class="node"><title>\\Component</title>
<ellipse fill="none" stroke="black" cx="228" cy="-18" rx="55.7903" ry="18"/>
<text text-anchor="middle" x="228" y="-14.3" font-family="Times New Roman,serif" font-size="14.00" fill="gray">\Component</text>
</g>
<!-- \\AlgorithmComponent&#45;&gt;\\Component -->
<g id="edge5" class="edge"><title>\\AlgorithmComponent&#45;&gt;\\Component</title>
<path fill="none" stroke="black" d="M366.75,-55.3074C339.906,-48.0371 307.653,-39.3019 281.107,-32.1122"/>
<polygon fill="none" stroke="black" points="281.802,-28.6746 271.235,-29.4386 279.972,-35.4312 281.802,-28.6746"/>
</g>
<!-- \\MedicinesController -->
<g id="node4" class="node"><title>\\MedicinesController</title>
<polygon fill="none" stroke="black" points="474.5,-412 369.5,-412 369.5,-376 474.5,-376 474.5,-412"/>
<text text-anchor="middle" x="422" y="-391.2" font-family="Times New Roman,serif" font-size="11.00">MedicinesController</text>
</g>
<!-- \\MedicinesController&#45;&gt;\\AppController -->
<g id="edge7" class="edge"><title>\\MedicinesController&#45;&gt;\\AppController</title>
<path fill="none" stroke="black" d="M374.732,-375.951C368.358,-373.127 361.959,-370.108 356,-367 323.228,-349.908 287.932,-327 262.888,-309.907"/>
<polygon fill="none" stroke="black" points="264.701,-306.906 254.478,-304.122 260.734,-312.673 264.701,-306.906"/>
</g>
<!-- \\Controller -->
<g id="node16" class="node"><title>\\Controller</title>
<ellipse fill="none" stroke="black" cx="50" cy="-286" rx="50.0912" ry="18"/>
<text text-anchor="middle" x="50" y="-282.3" font-family="Times New Roman,serif" font-size="14.00" fill="gray">\Controller</text>
</g>
<!-- \\AppController&#45;&gt;\\Controller -->
<g id="edge9" class="edge"><title>\\AppController&#45;&gt;\\Controller</title>
<path fill="none" stroke="black" d="M188.376,-286C165.507,-286 136.061,-286 110.3,-286"/>
<polygon fill="none" stroke="black" points="110.26,-282.5 100.26,-286 110.26,-289.5 110.26,-282.5"/>
</g>
<!-- \\PatientsController -->
<g id="node6" class="node"><title>\\PatientsController</title>
<polygon fill="none" stroke="black" points="469.5,-358 374.5,-358 374.5,-322 469.5,-322 469.5,-358"/>
<text text-anchor="middle" x="422" y="-337.2" font-family="Times New Roman,serif" font-size="11.00">PatientsController</text>
</g>
<!-- \\PatientsController&#45;&gt;\\AppController -->
<g id="edge11" class="edge"><title>\\PatientsController&#45;&gt;\\AppController</title>
<path fill="none" stroke="black" d="M374.032,-326.79C344.707,-318.543 307.039,-307.948 277.441,-299.624"/>
<polygon fill="none" stroke="black" points="278.311,-296.233 267.737,-296.895 276.416,-302.972 278.311,-296.233"/>
</g>
<!-- \\VisitsController -->
<g id="node7" class="node"><title>\\VisitsController</title>
<polygon fill="none" stroke="black" points="464.5,-304 379.5,-304 379.5,-268 464.5,-268 464.5,-304"/>
<text text-anchor="middle" x="422" y="-283.2" font-family="Times New Roman,serif" font-size="11.00">VisitsController</text>
</g>
<!-- \\VisitsController&#45;&gt;\\AppController -->
<g id="edge13" class="edge"><title>\\VisitsController&#45;&gt;\\AppController</title>
<path fill="none" stroke="black" d="M379.339,-286C349.513,-286 309.253,-286 277.902,-286"/>
<polygon fill="none" stroke="black" points="277.639,-282.5 267.639,-286 277.639,-289.5 277.639,-282.5"/>
</g>
<!-- \\CalculatorsController -->
<g id="node8" class="node"><title>\\CalculatorsController</title>
<polygon fill="none" stroke="black" points="477,-250 367,-250 367,-214 477,-214 477,-250"/>
<text text-anchor="middle" x="422" y="-229.2" font-family="Times New Roman,serif" font-size="11.00">CalculatorsController</text>
</g>
<!-- \\CalculatorsController&#45;&gt;\\AppController -->
<g id="edge15" class="edge"><title>\\CalculatorsController&#45;&gt;\\AppController</title>
<path fill="none" stroke="black" d="M366.75,-247.258C338.603,-255.174 304.508,-264.763 277.281,-272.421"/>
<polygon fill="none" stroke="black" points="276.264,-269.071 267.585,-275.148 278.159,-275.81 276.264,-269.071"/>
</g>
<!-- \\UsersController -->
<g id="node9" class="node"><title>\\UsersController</title>
<polygon fill="none" stroke="black" points="465,-196 379,-196 379,-160 465,-160 465,-196"/>
<text text-anchor="middle" x="422" y="-175.2" font-family="Times New Roman,serif" font-size="11.00">UsersController</text>
</g>
<!-- \\UsersController&#45;&gt;\\AppController -->
<g id="edge17" class="edge"><title>\\UsersController&#45;&gt;\\AppController</title>
<path fill="none" stroke="black" d="M378.852,-193.384C371.053,-196.819 363.127,-200.727 356,-205 320.517,-226.274 319.622,-242.961 284,-264 281.673,-265.375 279.244,-266.699 276.758,-267.968"/>
<polygon fill="none" stroke="black" points="275.125,-264.869 267.593,-272.32 278.127,-271.193 275.125,-264.869"/>
</g>
<!-- \\AnnouncementsController -->
<g id="node10" class="node"><title>\\AnnouncementsController</title>
<polygon fill="none" stroke="black" points="487.5,-142 356.5,-142 356.5,-106 487.5,-106 487.5,-142"/>
<text text-anchor="middle" x="422" y="-121.2" font-family="Times New Roman,serif" font-size="11.00">AnnouncementsController</text>
</g>
<!-- \\AnnouncementsController&#45;&gt;\\AppController -->
<g id="edge19" class="edge"><title>\\AnnouncementsController&#45;&gt;\\AppController</title>
<path fill="none" stroke="black" d="M368.913,-142.139C364.32,-144.755 359.93,-147.699 356,-151 310.399,-189.3 329.852,-226.002 284,-264 281.736,-265.876 279.291,-267.608 276.735,-269.204"/>
<polygon fill="none" stroke="black" points="274.819,-266.262 267.712,-274.12 278.168,-272.409 274.819,-266.262"/>
</g>
</g>
</svg>
